
        <svg xmlns="http://www.w3.org/2000/svg" xmlns:xlink="http://www.w3.org/1999/xlink" version="1.1" width="3187.5" 
        height="478.33750331703646" viewBox="0 0 3187.5 478.33750331703646">
			
			<g transform="scale(9.375) translate(10, 10)">
				<defs id="SvgjsDefs5214"></defs><g id="SvgjsG5215" featureKey="UFHKJ9-0" transform="matrix(1.1086469249832949,0,0,1.1086469249832949,404.8779043704061,-313.2947634635066)" fill="#b047db"><path xmlns="http://www.w3.org/2000/svg" d="M-275,299.4c-2.3,0.9-4.9,0.5-7.5-1.5c-2.7-2-6.4-4.5-9.1-5.8c-7.8-3.8-15.6-5.9-24.7-5.9  c-1.9,0-4.1,0.1-6.7,1.6c-2.5,1.4-7.2,4.3-9.2,4.5c-2.4,0.2-7.4,0.1-14.6,0.3c-3.4,0.1-7.4,0.7-10.9,2.6c-4.2,2.2-7.2,5.4-7.2,5.4  l-0.3,0.9c0,0,3-2.9,7.2-5.1c3.5-1.9,6.6-2.8,10-2.9c7.2-0.2,12.2-0.1,14.6-0.1c1.9,0,6.6-3,9.2-4.4c2.6-1.4,4.7-1.6,6.6-1.5  c10.3,0.3,18.5,2.8,25,5.7c2.8,1.2,6.7,3.6,9.4,5.5c2.3,1.6,5.1,2,7.2,1.2"></path><path xmlns="http://www.w3.org/2000/svg" d="M-348.4,296.2c-3.3,0-5.9,2.6-5.9,5.9c0,3.3,2.6,5.9,5.9,5.9c3.3,0,5.9-2.6,5.9-5.9  C-342.5,298.8-345.2,296.2-348.4,296.2z M-348.2,307c-2.6,0-4.7-2.1-4.7-4.7c0-2.6,2.1-4.7,4.7-4.7c2.6,0,4.7,2.1,4.7,4.7  C-343.5,304.9-345.6,307-348.2,307z M-348.2,306.5c-2.4,0-4.3-1.9-4.3-4.3c0-2.4,1.9-4.3,4.3-4.3c2.4,0,4.3,1.9,4.3,4.3  C-344,304.6-345.9,306.5-348.2,306.5z"></path><path xmlns="http://www.w3.org/2000/svg" d="M-304.4,296.2c-3.3,0-5.9,2.6-5.9,5.9c0,3.3,2.6,5.9,5.9,5.9s5.9-2.6,5.9-5.9  C-298.5,298.8-301.1,296.2-304.4,296.2z M-304.6,306.8c-2.6,0-4.7-2.1-4.7-4.7c0-2.6,2.1-4.7,4.7-4.7c2.6,0,4.7,2.1,4.7,4.7  C-299.9,304.7-302,306.8-304.6,306.8z M-304.6,306.4c-2.4,0-4.3-1.9-4.3-4.3c0-2.4,1.9-4.3,4.3-4.3c2.4,0,4.3,1.9,4.3,4.3  C-300.4,304.5-302.3,306.4-304.6,306.4z"></path><path xmlns="http://www.w3.org/2000/svg" d="M-342.5,304.9c0,0,7.6-0.1,16-0.2c8.4-0.1,16.2-0.7,16.2-0.7l-0.9-1.4c0,0-8.2,0.7-15.2,0.9  c-7,0.2-15.1,0.4-15.1,0.4L-342.5,304.9z"></path><path xmlns="http://www.w3.org/2000/svg" d="M-297.3,301.6c0,0,4-0.9,7-2.6c1.2-0.7,2.6-1.8,2.6-1.8l-2-1.1c0,0-0.9,0.8-2.1,1.5  c-3.4,1.9-6.3,2.7-6.3,2.7L-297.3,301.6z"></path><path xmlns="http://www.w3.org/2000/svg" d="M-355.6,304.9l1-0.8c0,0-2.9,0.1-5.2,0c-2.3-0.1-3.8-0.4-3.8-0.4l-0.6,0.4c0,0,2.1,0.5,4.3,0.7  C-357.6,304.9-355.6,304.9-355.6,304.9z"></path><path xmlns="http://www.w3.org/2000/svg" d="M-290.7,295.5c0,0-4-2-9.3-2.7c-8-1-12,2.4-12,2.4l-1,1.4c0,0,4.6-4.1,12.3-2.7c5,0.9,8.5,2.6,8.5,2.6  s0.5-0.3,0.8-0.5C-291.1,295.8-290.7,295.5-290.7,295.5z"></path><path xmlns="http://www.w3.org/2000/svg" d="M-313,295.3c0,0-3.8,0.2-9.7,0.3c-5.8,0-12.7-0.2-21-0.7c-8.6-0.5-13.1,2.7-13.1,2.7l-0.8,0.7  c0,0,4.9-3.4,13.1-2.8c8.3,0.6,15.1,1.4,20.9,1.4c5.8,0,9.6-0.2,9.6-0.2L-313,295.3z"></path><path xmlns="http://www.w3.org/2000/svg" d="M-361.9,300.9c0.4-0.8,3.1-3.6,4-4.3c0.9-0.6,0.3,1.1-0.3,2.1c-0.6,1.1-1.7,2.1-2.7,2.4  C-361.9,301.4-362.1,301.4-361.9,300.9z"></path></g><g id="SvgjsG5216" featureKey="XAPJzK-0" transform="matrix(2.2111664648750087,0,0,2.2111664648750087,116.90436515675222,-13.222775502127206)" fill="#b047db"><path d="M6.26 16.2 c0 -0.6 2.22 -0.6 2.22 0 c0 2.24 -1.16 3.8 -3.28 3.8 c-2.22 0 -3.74 -1.38 -3.8 -3.5 l0 -0.04 l0 -6.9 l0 -0.04 c0.06 -2.14 1.66 -3.56 3.8 -3.52 c2.24 0.04 3.28 1.6 3.28 3.82 c0 0.6 -2.22 0.6 -2.22 0 c0 -0.22 0 -0.4 -0.04 -0.6 c-0.12 -1.18 -1.54 -0.96 -1.84 -0.8 c-0.58 0.28 -0.7 0.98 -0.7 1.46 l0 6.26 c0.02 0.48 0.12 1.18 0.7 1.46 c0.3 0.16 1.72 0.38 1.84 -0.78 c0.04 -0.2 0.04 -0.4 0.04 -0.62 z M15.98 6.42 l2.08 12.7 c0.16 1 -2.1 1.1 -2.22 0.38 l-0.4 -2.4 l-2.34 0 l-0.4 2.4 c-0.1 0.6 -2.38 0.62 -2.22 -0.38 l2.1 -12.7 c0.1 -0.6 3.32 -0.54 3.4 0 z M15.06 14.84 l-0.78 -4.78 l-0.8 4.78 l1.58 0 z M27.96 18.86 c0.42 1 -1.82 1.48 -2.08 0.88 l-0.12 -0.28 c-0.66 -1.58 -1.38 -3.38 -2.04 -4.98 l-0.98 0 l0 5.08 c0 0.6 -2.28 0.6 -2.28 0 l0 -12.3 c0 -0.94 0.02 -1.24 1.42 -1.26 l2.06 0 c0.72 0 1.52 0.02 2.14 0.42 c1.36 0.86 1.78 2.38 1.76 3.92 c-0.02 1.28 -0.2 2.56 -1.46 3.5 c-0.14 0.08 -0.26 0.16 -0.38 0.24 c0.64 1.52 1.34 3.26 1.96 4.78 z M22.740000000000002 12.2 l1.72 0 c0.92 0 1.06 -1.12 1.1 -1.44 c0.02 -0.22 0.02 -1.02 -0.02 -1.4 c-0.08 -0.74 -0.36 -1.12 -1.28 -1.12 l-1.52 0 l0 3.96 z M43.980000000000004 13.68 l0 2.02 c0 0.58 0.1 1.86 -0.44 2.82 c-0.62 1.1 -1.8 1.42 -2.9 1.48 c-1.08 0.06 -2.1 -0.34 -2.86 -1.1 c-0.8 -0.76 -0.92 -1.72 -0.96 -2.44 l0 -0.04 l0 -6.84 l0 -0.04 c0.04 -0.72 0.16 -1.68 0.96 -2.44 c0.76 -0.76 1.78 -1.16 2.86 -1.1 c2.32 0.12 3.24 1.54 3.24 3.86 c0 0.52 -2.18 0.6 -2.18 -0.08 c0 -1.56 -0.92 -1.64 -1.86 -1.38 c-0.62 0.28 -0.74 1 -0.74 1.52 l0 6.18 c0.02 0.5 0.08 1.22 0.7 1.5 c0.48 0.16 1.94 0.4 2.06 -0.8 c0.04 -0.18 0.02 -0.48 0.02 -0.7 l-0.02 -1.24 l-0.88 0 c-0.6 0 -0.6 -2.3 0 -2.3 l2.02 0 c0.98 0 0.98 0 0.98 1.12 z M51.88 6.42 l2.08 12.7 c0.16 1 -2.1 1.1 -2.22 0.38 l-0.4 -2.4 l-2.34 0 l-0.4 2.4 c-0.1 0.6 -2.38 0.62 -2.22 -0.38 l2.1 -12.7 c0.1 -0.6 3.32 -0.54 3.4 0 z M50.96 14.84 l-0.78 -4.78 l-0.8 4.78 l1.58 0 z M63.86 18.86 c0.42 1 -1.82 1.48 -2.08 0.88 l-0.12 -0.28 c-0.66 -1.58 -1.38 -3.38 -2.04 -4.98 l-0.98 0 l0 5.08 c0 0.6 -2.28 0.6 -2.28 0 l0 -12.3 c0 -0.94 0.02 -1.24 1.42 -1.26 l2.06 0 c0.72 0 1.52 0.02 2.14 0.42 c1.36 0.86 1.78 2.38 1.76 3.92 c-0.02 1.28 -0.2 2.56 -1.46 3.5 c-0.14 0.08 -0.26 0.16 -0.38 0.24 c0.64 1.52 1.34 3.26 1.96 4.78 z M58.64 12.2 l1.72 0 c0.92 0 1.06 -1.12 1.1 -1.44 c0.02 -0.22 0.02 -1.02 -0.02 -1.4 c-0.08 -0.74 -0.36 -1.12 -1.28 -1.12 l-1.52 0 l0 3.96 z M71.82 6.42 l2.08 12.7 c0.16 1 -2.1 1.1 -2.22 0.38 l-0.4 -2.4 l-2.34 0 l-0.4 2.4 c-0.1 0.6 -2.38 0.62 -2.22 -0.38 l2.1 -12.7 c0.1 -0.6 3.32 -0.54 3.4 0 z M70.89999999999999 14.84 l-0.78 -4.78 l-0.8 4.78 l1.58 0 z M83.46 13.68 l0 2.02 c0 0.58 0.1 1.86 -0.44 2.82 c-0.62 1.1 -1.8 1.42 -2.9 1.48 c-1.08 0.06 -2.1 -0.34 -2.86 -1.1 c-0.8 -0.76 -0.92 -1.72 -0.96 -2.44 l0 -0.04 l0 -6.84 l0 -0.04 c0.04 -0.72 0.16 -1.68 0.96 -2.44 c0.76 -0.76 1.78 -1.16 2.86 -1.1 c2.32 0.12 3.24 1.54 3.24 3.86 c0 0.52 -2.18 0.6 -2.18 -0.08 c0 -1.56 -0.92 -1.64 -1.86 -1.38 c-0.62 0.28 -0.74 1 -0.74 1.52 l0 6.18 c0.02 0.5 0.08 1.22 0.7 1.5 c0.48 0.16 1.94 0.4 2.06 -0.8 c0.04 -0.18 0.02 -0.48 0.02 -0.7 l-0.02 -1.24 l-0.88 0 c-0.6 0 -0.6 -2.3 0 -2.3 l2.02 0 c0.98 0 0.98 0 0.98 1.12 z M88.53999999999999 17.72 l2.86 0 c0.6 0 0.6 2.28 0 2.28 l-3.86 0 c-1.28 0 -1.28 0 -1.28 -1.08 l0 -11.84 c0 -1.08 0 -1.08 1.22 -1.1 l3.9 0.02 c0.6 0 0.6 2.28 0 2.28 l-2.84 0 l0 3.64 l2 0 c0.6 0 0.6 2.3 0 2.3 l-2 0 l0 3.5 z"></path></g>
			</g>
		</svg>
	